<?xml version="1.0" encoding="utf-8"?>
<!-- Svg Vector Icons : http://www.onlinewebfonts.com/icon -->
<!DOCTYPE svg PUBLIC "-//W3C//DTD SVG 1.1//EN" "http://www.w3.org/Graphics/SVG/1.1/DTD/svg11.dtd">
<svg version="1.1" xmlns="http://www.w3.org/2000/svg" xmlns:xlink="http://www.w3.org/1999/xlink" x="0px" y="0px" viewBox="0 0 1000 1000" enable-background="new 0 0 1000 1000" xml:space="preserve">
<metadata> Svg Vector Icons : http://www.onlinewebfonts.com/icon </metadata>
<g><g transform="translate(0.000000,511.000000) scale(0.100000,-0.100000)"><path d="M3573.1,3650.6c-31-28.8-212.4-285.4-404.8-570.7L2821,2560l-1095-11.1c-1079.5-11.1-1097.2-11.1-1196.8-61.9c-163.7-79.6-276.5-192.5-356.2-354l-73-148.2V-459.6v-2444.5l73-148.2c86.3-177,223.4-305.3,400.4-376.1l123.9-50.9H5000h4302.7l123.9,50.9c177,70.8,314.1,199.1,400.4,376.1l73,148.2v2444.5v2444.5l-73,148.2c-79.6,163.7-199.1,283.2-358.4,358.4c-97.3,44.2-134.9,46.5-1194.6,57.5L7179,2560l-365,542c-219,325.2-387.1,553-420.3,568.5c-42,22.1-376.1,28.8-1409.2,28.8H3630.7L3573.1,3650.6z M5548.6,1732.6c732.3-212.4,1287.5-785.3,1468.9-1519.8c68.6-276.5,68.6-692.4,0-968.9c-183.6-736.7-738.9-1309.6-1475.5-1522c-152.7-44.2-227.9-50.9-542-50.9c-314.1,0-389.3,6.6-542,50.9c-725.6,208-1274.2,765.4-1466.7,1484.4c-77.4,289.8-79.6,714.5-8.9,1006.5c172.6,696.8,688,1258.7,1358.3,1482.2c252.2,86.3,371.6,99.6,725.6,90.7C5307.5,1781.3,5427,1768,5548.6,1732.6z M8183.3,1387.5c203.5-104,272.1-380.5,141.6-561.9c-53.1-73-216.8-157.1-305.3-157.1s-252.2,84.1-305.3,157.1c-174.8,238.9,4.4,595.1,298.7,595.1C8072.7,1420.7,8150.2,1405.2,8183.3,1387.5z"/><path d="M4628.4,1387.5c-305.3-70.8-606.1-238.9-831.8-464.6c-207.9-207.9-354-457.9-438-756.6c-68.6-245.5-68.6-632.7,2.2-878.2c157.1-564.1,555.3-982.2,1119.4-1179.1c163.7-55.3,201.3-59.7,519.9-61.9c327.4,0,351.7,4.4,537.6,68.6c553,199.1,955.7,626.1,1103.9,1174.7c61.9,227.9,66.4,637.1,8.8,847.3c-154.9,570.7-564.1,1011-1114.9,1201.2c-168.1,57.5-230.1,66.4-480,73C4860.6,1416.3,4723.5,1409.7,4628.4,1387.5z"/></g></g>
</svg>