<?xml version="1.0" encoding="utf-8"?>
<!-- Generated by IcoMoon.io -->
<!DOCTYPE svg PUBLIC "-//W3C//DTD SVG 1.1//EN" "http://www.w3.org/Graphics/SVG/1.1/DTD/svg11.dtd">
<svg version="1.1" xmlns="http://www.w3.org/2000/svg" xmlns:xlink="http://www.w3.org/1999/xlink" width="512" height="512" viewBox="0 0 512 512">
<g>
</g>
	<path d="M63.949 233.687h277.647v216.586h-277.647v-216.586z" fill="#000000" />
	<path d="M192.614 142.224c0 44.278-35.737 80.19-79.852 80.19-44.083 0-79.821-35.911-79.821-80.19 0-44.329 35.737-80.22 79.821-80.22 44.103 0 79.852 35.891 79.852 80.22z" fill="#000000" />
	<path d="M368.251 141.886c0 44.319-35.748 80.22-79.862 80.22-44.032 0-79.81-35.901-79.81-80.22 0-44.288 35.779-80.169 79.81-80.169 44.114 0 79.862 35.881 79.862 80.169z" fill="#000000" />
	<path d="M359.168 289.229h38.902v105.523h-38.902v-105.523z" fill="#000000" />
	<path d="M415.191 287.826v94.423l63.867 63.856v-208.24z" fill="#000000" />
</svg>
